<?xml version="1.0" encoding="iso-8859-1"?>
<!-- Generator: Adobe Illustrator 19.0.0, SVG Export Plug-In . SVG Version: 6.00 Build 0)  -->
<svg xmlns="http://www.w3.org/2000/svg" xmlns:xlink="http://www.w3.org/1999/xlink" version="1.1" id="Capa_1" x="0px" y="0px" viewBox="0 0 64.002 64.002" style="enable-background:new 0 0 64.002 64.002;" xml:space="preserve" width="512px" height="512px">
<g id="Whistle">
	<path d="M63.002,22.988H28.938h-4.09h-0.91c-0.108,0-0.207,0.03-0.305,0.061c-6.527,0.394-12.219,3.902-15.596,9.073   c-0.327-0.256-0.685-0.473-1.069-0.642c-2.515-1.098-5.452,0.054-6.55,2.569c-0.531,1.217-0.557,2.569-0.071,3.807   c0.485,1.238,1.423,2.212,2.642,2.744c0.598,0.26,1.241,0.39,1.888,0.404c-0.069,0.678-0.105,1.365-0.105,2.061   c0,11.07,9.006,20.077,20.077,20.077c11.07,0,20.077-9.006,20.077-20.077c0-2.961-0.653-5.881-1.901-8.539h19.979   c0.552,0,1-0.448,1-1v-9.538C64.002,23.436,63.554,22.988,63.002,22.988z M27.938,24.988v4.652c0,0.164-0.22,0.348-0.515,0.348   h-1.97c-0.294,0-0.515-0.184-0.515-0.348v-4.652H27.938z M4.759,39.006c-0.333-0.024-0.663-0.106-0.973-0.24   c-0.727-0.317-1.288-0.9-1.578-1.64c-0.29-0.741-0.275-1.549,0.043-2.277c0.488-1.117,1.584-1.784,2.73-1.784   c0.397,0,0.799,0.08,1.185,0.248c0.31,0.136,0.593,0.322,0.838,0.55L6.82,34.285c-0.257,0.526-0.492,1.062-0.704,1.612   L4.759,39.006z M40.508,34.027c1.581,2.734,2.417,5.859,2.417,9.038c0,9.967-8.109,18.077-18.077,18.077   c-9.968,0-18.077-8.109-18.077-18.077c0-2.252,0.433-4.4,1.188-6.391l0.702-1.608c2.689-5.418,8.001-9.312,14.276-9.974v4.548   c0,1.295,1.128,2.348,2.515,2.348h1.97c1.387,0,2.515-1.053,2.515-2.348v-4.652h25.295v7.538H41.373   c-0.357,0-0.688,0.191-0.866,0.501C40.328,33.337,40.329,33.718,40.508,34.027z M62.002,32.526h-4.769v-7.538h4.769V32.526z" fill="#808080"/>
	<path d="M19.247,18.312c0.193,0.289,0.51,0.445,0.833,0.445c0.19,0,0.383-0.054,0.554-0.168c0.459-0.306,0.583-0.927,0.277-1.387   l-6.359-9.539c-0.307-0.46-0.927-0.584-1.387-0.277c-0.459,0.306-0.583,0.927-0.277,1.387L19.247,18.312z" fill="#808080"/>
	<path d="M32.796,18.757c0.323,0,0.64-0.156,0.833-0.445l6.359-9.539c0.306-0.46,0.182-1.081-0.277-1.387   c-0.46-0.307-1.08-0.183-1.387,0.277l-6.359,9.539c-0.306,0.459-0.182,1.08,0.277,1.387C32.412,18.703,32.605,18.757,32.796,18.757   z" fill="#808080"/>
	<path d="M26.438,15.578c0.552,0,1-0.448,1-1V1.86c0-0.552-0.448-1-1-1c-0.552,0-1,0.448-1,1v12.718   C25.438,15.13,25.885,15.578,26.438,15.578z" fill="#808080"/>
	<path d="M17.641,34.746c-2.86,0.753-5.004,3.271-5.594,6.573c-0.65,3.634,0.762,7.164,3.686,9.213   c0.174,0.123,0.374,0.181,0.573,0.181c0.315,0,0.625-0.148,0.82-0.426c0.317-0.452,0.208-1.076-0.245-1.393   c-2.723-1.909-3.265-4.983-2.864-7.224c0.452-2.526,2.036-4.438,4.134-4.99c0.534-0.141,0.853-0.688,0.713-1.222   C18.722,34.925,18.174,34.603,17.641,34.746z" fill="#808080"/>
</g>
<g>
</g>
<g>
</g>
<g>
</g>
<g>
</g>
<g>
</g>
<g>
</g>
<g>
</g>
<g>
</g>
<g>
</g>
<g>
</g>
<g>
</g>
<g>
</g>
<g>
</g>
<g>
</g>
<g>
</g>
</svg>
